<svg width="850" height="175" viewBox="0 0 850 175" fill="none" xmlns="http://www.w3.org/2000/svg">
<path d="M385.427 61.3583C386.677 63.955 388.649 66.243 390.79 68.2314C392.997 70.2789 395.21 72.3263 397.398 74.3919C399.197 76.0897 400.996 77.7876 402.8 79.49C403.42 80.0756 404.041 80.6613 404.661 81.2469L412.117 74.3147L393.772 57.0001L424.502 27.9957V14.0269C423.891 14.6034 423.281 15.18 422.675 15.752C421.082 17.2546 419.495 18.7527 417.903 20.2554C415.691 22.3437 413.478 24.432 411.265 26.5202C408.788 28.8582 406.311 31.1962 403.834 33.5341C401.381 35.8449 398.967 38.1919 396.523 40.5117C394.065 42.8406 391.449 45.0106 388.996 47.3441C387.197 49.0555 385.446 50.9259 384.647 53.214C383.796 55.6609 384.133 58.3847 385.162 60.7726C385.249 60.9678 385.335 61.1631 385.427 61.3537V61.3583Z" fill="url(#paint0_linear_6568_27482)"/>
<path d="M408.192 84.5789L424.502 99.9687V86.0044L415.647 77.6467L408.192 84.5789Z" fill="url(#paint1_linear_6568_27482)"/>
<path d="M444.165 32.3855L443.93 32.6079V44.7291L450.64 38.4915L444.165 32.3855Z" fill="url(#paint2_linear_6568_27482)"/>
<path d="M423.453 15.0392L423.564 15.1209C423.502 15.2798 423.434 15.4432 423.367 15.6021L423.064 16.3103L422.915 16.6644L422.838 16.8415C422.814 16.9005 422.79 16.9595 422.761 17.0185L422.116 18.4168L421.438 19.8014L420.721 21.1678C419.74 22.9792 418.648 24.7406 417.441 26.434L416.989 27.0695C416.835 27.2783 416.676 27.4826 416.518 27.6915L416.282 28.0002C416.243 28.0501 416.205 28.1046 416.162 28.1545L416.041 28.3089L415.551 28.9172C415.392 29.1215 415.219 29.3167 415.051 29.5164L414.796 29.8161L414.671 29.9659C414.627 30.0158 414.584 30.0657 414.541 30.1157L414.016 30.6968L413.887 30.842C413.843 30.892 413.8 30.9419 413.757 30.9873L413.487 31.2733L413.218 31.5593L413.083 31.7001C413.04 31.7455 412.992 31.7954 412.949 31.8408L412.391 32.3946L412.251 32.5354L412.179 32.6035L412.107 32.6716L412.049 32.726L411.991 32.7805L411.818 32.9439L411.53 33.2163L411.385 33.3525C411.342 33.3934 411.299 33.4297 411.256 33.4706C411.251 33.4751 411.246 33.4796 411.241 33.4842L411.193 33.525L410.654 34.0108C410.573 34.088 410.486 34.1606 410.399 34.2332C410.385 34.2469 410.371 34.2559 410.356 34.2696L410.294 34.324L410.284 34.3331L410.212 34.3921L410.053 34.5283L409.75 34.7825C409.649 34.8643 409.543 34.946 409.442 35.0322L409.134 35.2819C409.033 35.3636 408.932 35.4499 408.827 35.5271C407.167 36.83 405.392 37.9831 403.613 39.1135C401.828 40.2393 400.029 41.3425 398.312 42.5546C397.451 43.1584 396.614 43.7939 395.816 44.4704C395.017 45.1468 394.257 45.8686 393.56 46.6358C392.862 47.403 392.223 48.2247 391.66 49.0873C391.097 49.9498 390.611 50.8578 390.203 51.7884C389.794 52.7236 389.462 53.6861 389.207 54.6666C388.952 55.6472 388.779 56.6414 388.673 57.6402C388.572 58.6389 388.538 59.6422 388.572 60.6409C388.606 61.6397 388.702 62.6339 388.851 63.619C389.01 64.6722 389.226 65.7118 389.496 66.7378C389.505 66.7741 389.515 66.8105 389.524 66.8468C389.539 66.8967 389.548 66.9421 389.563 66.9921L389.476 66.933C389.327 66.3883 389.192 65.8435 389.077 65.2896C389.077 65.2715 389.067 65.2533 389.063 65.2306C388.947 64.704 388.851 64.1683 388.764 63.6326C388.457 61.6578 388.36 59.6422 388.558 57.6311C388.654 56.6278 388.827 55.6245 389.082 54.6394C389.332 53.6543 389.664 52.6828 390.073 51.7385C390.482 50.7942 390.967 49.8817 391.535 49.0101C392.098 48.1385 392.742 47.3122 393.444 46.536C394.147 45.7597 394.911 45.0333 395.71 44.3523C396.513 43.6714 397.35 43.0313 398.211 42.4229C399.933 41.2017 401.737 40.0986 403.516 38.9727C405.296 37.8469 407.061 36.6938 408.716 35.3954C408.822 35.3182 408.923 35.232 409.024 35.1503L409.332 34.9051C409.433 34.8234 409.538 34.7417 409.639 34.66L409.938 34.4057L410.236 34.1515C410.236 34.1515 410.27 34.1197 410.289 34.1061C410.313 34.088 410.337 34.0653 410.361 34.0471C410.371 34.038 410.385 34.0244 410.395 34.0153C410.404 34.0063 410.414 33.9972 410.428 33.9881C410.462 33.9563 410.496 33.9291 410.534 33.8973L411.121 33.3752C411.169 33.3298 411.217 33.289 411.265 33.2436L411.318 33.1936L411.381 33.1346L411.405 33.1119L411.688 32.8441L411.972 32.5762L412.044 32.5081L412.088 32.4673L412.117 32.44L412.15 32.4083L412.256 32.3038L412.809 31.75C412.857 31.7046 412.901 31.6547 412.944 31.6093L413.078 31.4685L413.348 31.1871L413.617 30.9056C413.66 30.8602 413.704 30.8103 413.747 30.7603L413.877 30.6151L414.401 30.034C414.445 29.984 414.488 29.9386 414.531 29.8887L414.656 29.7389L414.911 29.4438C415.079 29.2441 415.253 29.0488 415.411 28.8446L415.902 28.2362L416.022 28.0864C416.061 28.0365 416.099 27.982 416.142 27.9321L416.378 27.6234C416.537 27.4191 416.691 27.2102 416.849 27.006L417.302 26.3749C418.504 24.6907 419.596 22.9338 420.582 21.1315C421.563 19.3247 422.448 17.4725 423.237 15.5885C423.309 15.416 423.381 15.248 423.449 15.0755L423.453 15.0392Z" fill="url(#paint3_linear_6568_27482)"/>
<path d="M423.454 15.0392L423.434 15.0846C422.675 16.8869 421.467 18.3532 420.524 20.0828C419.538 21.8897 418.264 23.5194 417.061 25.2082L416.609 25.8392C416.455 26.0481 416.297 26.2524 416.138 26.4612L415.902 26.7699C415.864 26.8198 415.825 26.8743 415.782 26.9242L415.662 27.0786L415.171 27.6869C415.012 27.8912 414.839 28.0864 414.671 28.2862L414.416 28.5858L414.291 28.7356C414.248 28.7855 414.204 28.8355 414.161 28.8809L413.637 29.462L413.507 29.6072C413.464 29.6572 413.42 29.7071 413.377 29.7525L413.108 30.0385L412.838 30.3245L412.704 30.4652C412.689 30.4834 412.67 30.5016 412.655 30.5152C412.627 30.547 412.598 30.5742 412.569 30.6014L412.073 31.0963L412.016 31.1553L411.876 31.296L411.809 31.3641L411.737 31.4322L411.453 31.7001L411.28 31.8635L411.217 31.9225L411.169 31.9679L411.025 32.1041C410.977 32.1495 410.929 32.1903 410.881 32.2357L410.424 32.6443L410.318 32.7397L410.294 32.7578C410.198 32.8441 410.097 32.9303 409.996 33.0166L409.697 33.2708L409.399 33.525C409.298 33.6068 409.197 33.6885 409.091 33.7747L408.783 34.0199C408.682 34.1016 408.581 34.1878 408.476 34.265C406.821 35.5634 405.051 36.721 403.267 37.8469C401.482 38.9727 399.683 40.0759 397.961 41.2925C397.1 41.9009 396.263 42.5364 395.46 43.2174C394.662 43.8984 393.902 44.6202 393.199 45.3919C392.497 46.1637 391.857 46.9854 391.295 47.8525C390.732 48.7196 390.241 49.6275 389.832 50.5672C389.424 51.507 389.092 52.4739 388.837 53.4545C388.582 54.4351 388.409 55.4339 388.308 56.4371C388.207 57.4404 388.178 58.4437 388.216 59.447C388.25 60.4457 388.351 61.4445 388.5 62.4296C388.644 63.3693 388.837 64.2954 389.068 65.217C389.198 65.7391 389.342 66.2612 389.501 66.7741C389.51 66.8059 389.52 66.8377 389.529 66.8695C389.539 66.9058 389.549 66.9376 389.563 66.9739C389.553 66.9421 389.544 66.9058 389.534 66.874C389.525 66.8422 389.515 66.8105 389.505 66.7787C389.356 66.2793 389.212 65.7799 389.087 65.276C388.851 64.3363 388.654 63.392 388.505 62.4341C388.351 61.449 388.255 60.4503 388.221 59.4515C388.187 58.4528 388.212 57.445 388.313 56.4417C388.414 55.4384 388.587 54.4397 388.842 53.4591C389.097 52.4785 389.424 51.5115 389.832 50.5718C390.241 49.6321 390.727 48.7241 391.295 47.857C391.857 46.9899 392.497 46.1682 393.199 45.3919C393.902 44.6202 394.662 43.8938 395.46 43.2174C396.258 42.5364 397.1 41.9009 397.961 41.2925C399.683 40.0759 401.482 38.9727 403.267 37.8469C405.051 36.721 406.816 35.5634 408.471 34.265C408.577 34.1878 408.678 34.1016 408.779 34.0199L409.087 33.7747C409.188 33.693 409.293 33.6113 409.394 33.525L409.693 33.2708L409.991 33.0166C410.092 32.9303 410.193 32.8486 410.289 32.7578L410.318 32.7306L410.424 32.6352L410.871 32.2312C410.919 32.1858 410.967 32.145 411.015 32.0996L411.16 31.9634L411.227 31.8998L411.289 31.8408L411.443 31.6955L411.727 31.4277L411.799 31.3596L411.867 31.2915L412.006 31.1553L412.021 31.1417L412.078 31.0826L412.559 30.6014C412.593 30.5697 412.627 30.5333 412.655 30.5016C412.67 30.4879 412.68 30.4743 412.694 30.4607L412.704 30.4516L412.829 30.32L413.098 30.0385L413.367 29.7525C413.411 29.7071 413.454 29.6572 413.497 29.6072L413.627 29.462L414.151 28.8809C414.195 28.8309 414.238 28.7855 414.281 28.7356L414.406 28.5858L414.661 28.2907C414.83 28.091 415.003 27.8957 415.161 27.6915L415.652 27.0831L415.772 26.9333C415.816 26.8834 415.849 26.8289 415.893 26.779L416.128 26.4703C416.287 26.2614 416.446 26.0572 416.6 25.8483L417.052 25.2173C418.254 23.5285 419.534 21.9487 420.52 20.1419C421.462 18.4122 422.689 16.8596 423.449 15.0573L423.454 15.0392Z" fill="url(#paint4_linear_6568_27482)"/>
<path d="M465.651 55.0072L465.357 55.266C465.261 55.3522 465.165 55.4385 465.064 55.5247C463.496 56.8867 461.846 58.126 460.191 59.3427C458.532 60.5593 456.863 61.7533 455.247 63.0471C454.439 63.6917 453.65 64.3636 452.885 65.0673C452.12 65.7709 451.389 66.5155 450.702 67.2963C450.014 68.0771 449.369 68.8988 448.792 69.7523C448.21 70.6058 447.691 71.4956 447.234 72.399C446.777 73.3024 446.387 74.2285 446.06 75.1591C445.733 76.0898 445.473 77.025 445.276 77.9602C445.079 78.8953 444.944 79.8215 444.862 80.743C444.848 80.8928 444.838 81.0472 444.829 81.197C444.901 81.1289 444.968 81.0653 445.04 80.9972C445.117 80.3435 445.223 79.6853 445.363 79.0225C445.56 78.0873 445.819 77.1475 446.147 76.2124C446.474 75.2772 446.863 74.3511 447.32 73.4431C447.777 72.5352 448.297 71.6408 448.879 70.7828C449.461 69.9248 450.105 69.0986 450.798 68.3132C451.49 67.5278 452.226 66.7833 452.991 66.0751C453.756 65.3669 454.549 64.695 455.357 64.0458C456.974 62.752 458.647 61.5535 460.302 60.3369C461.957 59.1202 463.606 57.8809 465.165 56.5235C465.266 56.4418 465.362 56.351 465.458 56.2693L465.747 56.0105C465.747 56.0105 465.781 55.9832 465.795 55.9651C465.766 55.6428 465.718 55.325 465.651 55.0072Z" fill="url(#paint5_linear_6568_27482)"/>
<path d="M445.272 77.9556C445.469 77.0204 445.729 76.0852 446.056 75.1545C446.383 74.2239 446.772 73.2978 447.229 72.3944C447.686 71.4864 448.206 70.6012 448.788 69.7477C449.37 68.8942 450.009 68.0725 450.697 67.2872C451.385 66.5063 452.121 65.7618 452.881 65.0581C453.646 64.3499 454.435 63.6826 455.243 63.0379C456.859 61.7441 458.528 60.5502 460.187 59.3335C461.847 58.1169 463.492 56.8775 465.06 55.5156C465.161 55.4339 465.257 55.3431 465.353 55.2568L465.646 54.9981C465.271 53.1731 464.343 51.4344 462.847 50.018L454.17 41.8282L446.878 48.6106L455.863 57.0909L443.93 68.354V82.0323C444.228 81.7508 444.526 81.4693 444.82 81.1879C444.829 81.038 444.839 80.8837 444.853 80.7293C444.935 79.8123 445.07 78.8817 445.267 77.9465L445.272 77.9556Z" fill="url(#paint6_linear_6568_27482)"/>
<path d="M465.242 56.6324C463.669 57.9989 462.02 59.2382 460.36 60.4549C458.701 61.6715 457.032 62.8655 455.42 64.1548C454.617 64.7994 453.824 65.4668 453.064 66.1704C452.304 66.8741 451.568 67.6141 450.885 68.3903C450.197 69.1666 449.557 69.9883 448.98 70.8373C448.398 71.6862 447.879 72.5715 447.426 73.4749C446.969 74.3783 446.58 75.2953 446.253 76.226C445.926 77.1521 445.666 78.0872 445.464 79.0179C445.329 79.6489 445.223 80.2754 445.146 80.8974C451.048 75.3225 456.95 69.7477 462.857 64.1729C464.92 62.2254 465.911 59.6513 465.844 57.1C465.853 56.7777 465.844 56.4599 465.819 56.1376L465.545 56.3827C465.449 56.469 465.353 56.5552 465.252 56.6415L465.242 56.6324Z" fill="url(#paint7_linear_6568_27482)"/>
<path d="M465.747 56.0058L465.459 56.2646C465.362 56.3509 465.266 56.4371 465.165 56.5188C463.602 57.8762 461.957 59.1156 460.302 60.3322C458.648 61.5489 456.974 62.7428 455.358 64.0412C454.55 64.6904 453.756 65.3623 452.991 66.0705C452.227 66.7787 451.491 67.5232 450.798 68.3086C450.105 69.0939 449.461 69.9202 448.879 70.7782C448.297 71.6362 447.777 72.526 447.32 73.4385C446.863 74.3464 446.474 75.2771 446.147 76.2077C445.82 77.1429 445.56 78.0826 445.363 79.0178C445.223 79.6806 445.117 80.3389 445.041 80.9926L445.146 80.8927C445.228 80.2708 445.329 79.6398 445.464 79.0133C445.661 78.0826 445.926 77.1474 446.253 76.2213C446.58 75.2952 446.974 74.3737 447.426 73.4703C447.883 72.5668 448.403 71.6861 448.98 70.8327C449.562 69.9837 450.202 69.162 450.885 68.3857C451.572 67.6049 452.303 66.8695 453.063 66.1658C453.823 65.4621 454.617 64.7948 455.42 64.1502C457.032 62.8609 458.701 61.6669 460.36 60.4503C462.019 59.2336 463.669 57.9943 465.242 56.6278C465.343 56.5461 465.439 56.4553 465.536 56.369L465.81 56.1239C465.81 56.0694 465.8 56.0149 465.79 55.9604C465.776 55.9741 465.757 55.9877 465.742 56.0058H465.747Z" fill="url(#paint8_linear_6568_27482)"/>
<path d="M465.747 56.0058L465.459 56.2646C465.362 56.3509 465.266 56.4371 465.165 56.5188C463.602 57.8762 461.957 59.1156 460.302 60.3322C458.648 61.5489 456.974 62.7428 455.358 64.0412C454.55 64.6904 453.756 65.3623 452.991 66.0705C452.227 66.7787 451.491 67.5232 450.798 68.3086C450.105 69.0939 449.461 69.9202 448.879 70.7782C448.297 71.6362 447.777 72.526 447.32 73.4385C446.863 74.3464 446.474 75.2771 446.147 76.2077C445.82 77.1429 445.56 78.0826 445.363 79.0178C445.223 79.6806 445.117 80.3389 445.041 80.9926L445.146 80.8927C445.228 80.2708 445.329 79.6398 445.464 79.0133C445.661 78.0826 445.926 77.1474 446.253 76.2213C446.58 75.2952 446.974 74.3737 447.426 73.4703C447.883 72.5668 448.403 71.6861 448.98 70.8327C449.562 69.9837 450.202 69.162 450.885 68.3857C451.572 67.6049 452.303 66.8695 453.063 66.1658C453.823 65.4621 454.617 64.7948 455.42 64.1502C457.032 62.8609 458.701 61.6669 460.36 60.4503C462.019 59.2336 463.669 57.9943 465.242 56.6278C465.343 56.5461 465.439 56.4553 465.536 56.369L465.81 56.1239C465.81 56.0694 465.8 56.0149 465.79 55.9604C465.776 55.9741 465.757 55.9877 465.742 56.0058H465.747Z" fill="url(#paint9_linear_6568_27482)"/>
<path d="M444.858 80.7338C444.94 79.8168 445.074 78.8861 445.272 77.9509C445.469 77.0203 445.728 76.0806 446.056 75.1499C446.383 74.2193 446.777 73.2977 447.229 72.3897C447.686 71.4863 448.206 70.5965 448.788 69.7431C449.37 68.8896 450.009 68.0679 450.697 67.2871C451.385 66.5062 452.121 65.7617 452.881 65.0581C453.646 64.3499 454.434 63.6825 455.242 63.0379C456.859 61.7486 458.528 60.5501 460.187 59.3334C461.846 58.1168 463.491 56.8774 465.059 55.5155C465.161 55.4338 465.257 55.343 465.353 55.2567L465.646 54.998C465.646 54.998 465.646 54.9934 465.646 54.9889L465.353 55.2477C465.257 55.3339 465.161 55.4202 465.059 55.5064C463.491 56.8683 461.846 58.1077 460.187 59.3244C458.528 60.541 456.859 61.735 455.242 63.0288C454.434 63.6734 453.646 64.3453 452.881 65.049C452.116 65.7526 451.385 66.4972 450.697 67.278C450.009 68.0588 449.365 68.8805 448.788 69.7385C448.206 70.592 447.686 71.4818 447.229 72.3852C446.772 73.2932 446.383 74.2147 446.056 75.1454C445.728 76.076 445.469 77.0112 445.272 77.9464C445.074 78.8816 444.94 79.8077 444.858 80.7293V80.7338Z" fill="url(#paint10_linear_6568_27482)"/>
<path d="M444.858 80.7338C444.94 79.8168 445.074 78.8861 445.272 77.9509C445.469 77.0203 445.728 76.0806 446.056 75.1499C446.383 74.2193 446.777 73.2977 447.229 72.3897C447.686 71.4863 448.206 70.5965 448.788 69.7431C449.37 68.8896 450.009 68.0679 450.697 67.2871C451.385 66.5062 452.121 65.7617 452.881 65.0581C453.646 64.3499 454.434 63.6825 455.242 63.0379C456.859 61.7486 458.528 60.5501 460.187 59.3334C461.846 58.1168 463.491 56.8774 465.059 55.5155C465.161 55.4338 465.257 55.343 465.353 55.2567L465.646 54.998C465.646 54.998 465.646 54.9934 465.646 54.9889L465.353 55.2477C465.257 55.3339 465.161 55.4202 465.059 55.5064C463.491 56.8683 461.846 58.1077 460.187 59.3244C458.528 60.541 456.859 61.735 455.242 63.0288C454.434 63.6734 453.646 64.3453 452.881 65.049C452.116 65.7526 451.385 66.4972 450.697 67.278C450.009 68.0588 449.365 68.8805 448.788 69.7385C448.206 70.592 447.686 71.4818 447.229 72.3852C446.772 73.2932 446.383 74.2147 446.056 75.1454C445.728 76.076 445.469 77.0112 445.272 77.9464C445.074 78.8816 444.94 79.8077 444.858 80.7293V80.7338Z" fill="url(#paint11_linear_6568_27482)"/>
<path d="M651.213 164.333C650.445 164.333 649.772 164.064 649.196 163.526C648.659 162.95 648.39 162.278 648.39 161.509V152.521C648.39 150.677 648.524 149.083 648.793 147.739C649.062 146.356 649.619 145.184 650.464 144.224C649.657 143.302 649.119 142.169 648.851 140.825C648.582 139.48 648.428 137.924 648.39 136.157V126.881C648.39 126.113 648.659 125.46 649.196 124.922C649.772 124.346 650.445 124.058 651.213 124.058C651.981 124.058 652.653 124.346 653.23 124.922C653.806 125.46 654.094 126.113 654.094 126.881V135.927C654.094 137.003 654.132 137.905 654.209 138.635C654.286 139.326 654.497 139.883 654.843 140.306C655.189 140.69 655.746 140.978 656.514 141.17C657.282 141.324 658.358 141.401 659.74 141.401H691.546C692.967 141.401 694.062 141.324 694.83 141.17C695.598 141.017 696.155 140.729 696.501 140.306C696.885 139.883 697.096 139.326 697.135 138.635C697.212 137.905 697.25 136.983 697.25 135.869V126.881C697.25 126.113 697.519 125.46 698.057 124.922C698.633 124.346 699.305 124.058 700.073 124.058C700.841 124.058 701.494 124.346 702.032 124.922C702.608 125.46 702.897 126.113 702.897 126.881V135.869C702.897 137.713 702.762 139.326 702.493 140.709C702.263 142.092 701.725 143.264 700.88 144.224C701.725 145.146 702.263 146.298 702.493 147.681C702.762 149.064 702.897 150.677 702.897 152.521V161.509C702.897 162.278 702.608 162.95 702.032 163.526C701.494 164.064 700.841 164.333 700.073 164.333C699.305 164.333 698.633 164.064 698.057 163.526C697.519 162.95 697.25 162.278 697.25 161.509V152.521C697.25 151.407 697.212 150.504 697.135 149.813C697.096 149.083 696.885 148.526 696.501 148.142C696.155 147.72 695.598 147.431 694.83 147.278C694.062 147.124 692.967 147.047 691.546 147.047H659.107C657.916 147.047 656.975 147.143 656.283 147.335C655.63 147.489 655.131 147.758 654.785 148.142C654.478 148.488 654.286 148.987 654.209 149.64C654.132 150.255 654.094 151.042 654.094 152.002V161.509C654.094 162.278 653.806 162.95 653.23 163.526C652.653 164.064 651.981 164.333 651.213 164.333Z" fill="#203D76"/>
<path d="M601.934 164.333C598.554 164.333 595.596 164.16 593.061 163.814C590.564 163.469 588.49 162.623 586.838 161.279C585.186 159.896 583.957 157.841 583.15 155.114C582.344 152.387 581.94 148.661 581.94 143.936V143.878C581.94 139.461 582.286 135.965 582.978 133.392C583.669 130.78 584.725 128.802 586.147 127.457C587.568 126.074 589.354 125.172 591.505 124.749C593.656 124.327 596.191 124.096 599.111 124.058H633.509C634.277 124.058 634.949 124.346 635.525 124.922C636.102 125.46 636.39 126.113 636.39 126.881C636.39 127.649 636.102 128.321 635.525 128.898C634.949 129.435 634.277 129.704 633.509 129.704H604.7H602.164C599.514 129.704 597.267 129.877 595.423 130.223C593.579 130.53 592.081 131.202 590.929 132.239C589.776 133.238 588.931 134.659 588.394 136.503C587.894 138.347 587.625 140.786 587.587 143.821C587.625 146.894 587.894 149.39 588.394 151.311C588.931 153.232 589.776 154.749 590.929 155.863C592.081 156.938 593.579 157.687 595.423 158.11C597.267 158.494 599.514 158.686 602.164 158.686H633.509C634.277 158.686 634.949 158.974 635.525 159.55C636.102 160.088 636.39 160.741 636.39 161.509C636.39 162.278 636.102 162.95 635.525 163.526C634.949 164.064 634.277 164.333 633.509 164.333H601.934Z" fill="#203D76"/>
<path d="M569.94 154.768C569.864 156.228 569.672 157.534 569.364 158.686C569.095 159.8 568.596 160.76 567.866 161.567C567.136 162.374 566.157 163.008 564.928 163.469C563.698 163.929 562.104 164.218 560.145 164.333H558.302H527.13H527.015H526.957C524.691 164.333 522.828 164.141 521.368 163.757C519.909 163.334 518.737 162.739 517.854 161.97C517.008 161.202 516.413 160.242 516.067 159.09C515.722 157.899 515.51 156.554 515.434 155.056V152.06C515.434 151.292 515.702 150.639 516.24 150.101C516.816 149.525 517.489 149.237 518.257 149.237C519.025 149.237 519.678 149.525 520.216 150.101C520.792 150.639 521.08 151.292 521.08 152.06V153.097V153.328C521.08 154.365 521.119 155.229 521.195 155.921C521.272 156.612 521.484 157.169 521.829 157.591C522.213 157.976 522.79 158.264 523.558 158.456C524.364 158.609 525.478 158.686 526.9 158.686H558.878C560.184 158.686 561.202 158.609 561.932 158.456C562.661 158.264 563.199 157.976 563.545 157.591C563.891 157.169 564.102 156.612 564.179 155.921C564.255 155.229 564.294 154.365 564.294 153.328V152.002C564.294 151.004 564.255 150.197 564.179 149.583C564.102 148.93 563.871 148.411 563.487 148.027C563.103 147.643 562.527 147.393 561.759 147.278C561.029 147.124 559.972 147.047 558.59 147.047H526.957C524.46 147.047 522.444 146.798 520.907 146.298C519.409 145.799 518.257 145.088 517.45 144.166C516.644 143.206 516.106 142.035 515.837 140.652C515.568 139.269 515.434 137.675 515.434 135.869V133.565C515.472 132.028 515.664 130.665 516.01 129.474C516.355 128.283 516.951 127.284 517.796 126.478C518.679 125.671 519.851 125.076 521.311 124.691C522.77 124.269 524.653 124.058 526.957 124.058H558.244H560.145C562.066 124.173 563.641 124.461 564.87 124.922C566.099 125.344 567.06 125.959 567.751 126.766C568.481 127.534 568.999 128.475 569.307 129.589C569.614 130.665 569.806 131.913 569.883 133.334C569.883 133.373 569.883 133.43 569.883 133.507C569.921 133.584 569.94 133.718 569.94 133.91C569.94 134.102 569.94 134.39 569.94 134.775C569.94 135.12 569.94 135.62 569.94 136.273C569.94 137.079 569.652 137.771 569.076 138.347C568.538 138.885 567.885 139.154 567.117 139.154C566.349 139.154 565.677 138.885 565.101 138.347C564.563 137.771 564.294 137.079 564.294 136.273V135.063C564.294 134.026 564.255 133.161 564.179 132.47C564.102 131.778 563.891 131.241 563.545 130.857C563.199 130.434 562.661 130.146 561.932 129.992C561.202 129.8 560.184 129.704 558.878 129.704H526.9C525.478 129.704 524.364 129.781 523.558 129.935C522.79 130.088 522.213 130.376 521.829 130.799C521.484 131.183 521.272 131.721 521.195 132.412C521.119 133.104 521.08 133.987 521.08 135.063V135.869C521.08 136.983 521.099 137.905 521.138 138.635C521.215 139.326 521.426 139.883 521.772 140.306C522.156 140.729 522.732 141.017 523.5 141.17C524.307 141.324 525.421 141.401 526.842 141.401H558.244C560.702 141.401 562.7 141.631 564.236 142.092C565.773 142.553 566.944 143.225 567.751 144.109C568.596 144.992 569.172 146.087 569.48 147.393C569.787 148.661 569.94 150.139 569.94 151.83V154.768Z" fill="#203D76"/>
<path d="M500.61 164.333C499.842 164.333 499.17 164.064 498.594 163.526C498.056 162.95 497.787 162.278 497.787 161.509V126.881C497.787 126.113 498.056 125.46 498.594 124.922C499.17 124.346 499.842 124.058 500.61 124.058C501.379 124.058 502.032 124.346 502.569 124.922C503.146 125.46 503.434 126.113 503.434 126.881V161.509C503.434 162.278 503.146 162.95 502.569 163.526C502.032 164.064 501.379 164.333 500.61 164.333Z" fill="#203D76"/>
<path d="M454.212 136.33C455.019 136.33 455.691 136.618 456.229 137.195C456.805 137.732 457.093 138.385 457.093 139.154V161.509C457.093 162.278 456.805 162.95 456.229 163.526C455.691 164.064 455.019 164.333 454.212 164.333C453.444 164.333 452.772 164.064 452.196 163.526C451.658 162.95 451.389 162.278 451.389 161.509V139.154C451.389 138.385 451.658 137.732 452.196 137.195C452.772 136.618 453.444 136.33 454.212 136.33ZM422.695 144.397C422.695 140.325 422.868 136.983 423.214 134.371C423.56 131.759 424.309 129.704 425.461 128.206C426.613 126.67 428.265 125.613 430.416 125.037C432.567 124.423 435.448 124.096 439.059 124.058H468.559H468.617C472.305 124.058 475.282 124.327 477.548 124.864C479.814 125.402 481.543 126.401 482.734 127.86C483.963 129.282 484.769 131.298 485.154 133.91C485.576 136.484 485.787 139.807 485.787 143.878V161.509C485.787 162.278 485.499 162.95 484.923 163.526C484.385 164.064 483.732 164.333 482.964 164.333C482.196 164.333 481.524 164.064 480.947 163.526C480.371 162.95 480.083 162.278 480.083 161.509V144.397C480.083 140.825 479.949 138.059 479.68 136.1C479.411 134.141 478.777 132.681 477.778 131.721C476.818 130.761 475.358 130.184 473.399 129.992C471.479 129.8 468.848 129.704 465.506 129.704H442.862C439.481 129.704 436.831 129.819 434.91 130.05C432.99 130.242 431.549 130.818 430.589 131.778C429.629 132.739 429.014 134.218 428.745 136.215C428.515 138.174 428.4 140.901 428.4 144.397V161.509C428.4 162.278 428.111 162.95 427.535 163.526C426.959 164.064 426.287 164.333 425.519 164.333C424.75 164.333 424.078 164.064 423.502 163.526C422.964 162.95 422.695 162.278 422.695 161.509V144.397Z" fill="#203D76"/>
<path d="M357.917 164.333C357.149 164.333 356.477 164.064 355.9 163.526C355.363 162.95 355.094 162.278 355.094 161.509V147.681V142.092C355.094 136.061 357.36 131.586 361.893 128.667C366.464 125.709 373.359 124.173 382.578 124.058H383.211H383.845C392.987 124.173 399.748 125.709 404.127 128.667C408.506 131.625 410.695 136.1 410.695 142.092V147.681V161.509C410.695 162.278 410.407 162.95 409.831 163.526C409.293 164.064 408.621 164.333 407.814 164.333C407.046 164.333 406.374 164.064 405.798 163.526C405.26 162.95 404.991 162.278 404.991 161.509V147.681V142.092C404.991 139.864 404.665 137.982 404.012 136.446C403.359 134.871 402.206 133.584 400.555 132.585C398.903 131.586 396.675 130.857 393.871 130.396C391.067 129.935 387.514 129.704 383.211 129.704C378.909 129.704 375.318 129.935 372.437 130.396C369.556 130.857 367.251 131.586 365.523 132.585C363.794 133.584 362.565 134.871 361.835 136.446C361.105 137.982 360.74 139.864 360.74 142.092H395.599C396.368 142.092 397.021 142.38 397.558 142.956C398.135 143.494 398.423 144.147 398.423 144.915C398.423 145.684 398.135 146.356 397.558 146.932C397.021 147.47 396.368 147.739 395.599 147.739H360.74V161.509C360.74 162.278 360.452 162.95 359.876 163.526C359.338 164.064 358.685 164.333 357.917 164.333Z" fill="#203D76"/>
<path d="M280.002 127.515C280.002 126.708 280.232 125.94 280.693 125.21C281.154 124.442 281.865 124.058 282.825 124.058C283.171 124.058 283.478 124.134 283.747 124.288C284.054 124.403 284.381 124.557 284.726 124.749L337.389 156.612V126.881C337.389 126.113 337.678 125.46 338.254 124.922C338.83 124.346 339.502 124.058 340.27 124.058C341.039 124.058 341.692 124.346 342.229 124.922C342.806 125.46 343.094 126.113 343.094 126.881V161.509C343.094 162.278 342.806 162.95 342.229 163.526C341.692 164.064 341.039 164.333 340.27 164.333C339.733 164.333 339.233 164.198 338.772 163.929C338.734 163.929 338.676 163.91 338.599 163.872C338.523 163.795 338.254 163.641 337.793 163.411C337.37 163.142 336.698 162.739 335.776 162.201C334.893 161.625 333.606 160.837 331.916 159.839C330.264 158.84 328.151 157.572 325.578 156.036C323.043 154.461 319.912 152.559 316.186 150.332C312.498 148.065 308.139 145.415 303.107 142.38C298.075 139.346 292.255 135.831 285.648 131.836V161.509C285.648 162.278 285.36 162.95 284.784 163.526C284.246 164.064 283.593 164.333 282.825 164.333C282.057 164.333 281.385 164.064 280.808 163.526C280.271 162.95 280.002 162.278 280.002 161.509V127.515Z" fill="#203D76"/>
<path d="M268.002 129.647C267.848 133.68 267.33 136.868 266.446 139.211C265.563 141.516 264.314 143.283 262.701 144.512C261.088 145.703 259.109 146.471 256.766 146.817C254.423 147.124 251.696 147.278 248.584 147.278H248.527H243.111V161.509C243.111 162.278 242.823 162.95 242.246 163.526C241.709 164.064 241.056 164.333 240.287 164.333C239.519 164.333 238.847 164.064 238.271 163.526C237.733 162.95 237.464 162.278 237.464 161.509V147.278H232.106C229.148 147.239 226.536 147.047 224.269 146.702C222.042 146.317 220.14 145.53 218.565 144.339C217.029 143.11 215.838 141.343 214.993 139.038C214.186 136.695 213.706 133.565 213.552 129.647V126.823C213.552 126.055 213.821 125.402 214.359 124.864C214.935 124.327 215.608 124.058 216.376 124.058V124V124.058C217.029 124.058 217.624 124.269 218.162 124.691C218.7 125.076 219.045 125.594 219.199 126.247C219.199 129.435 219.295 132.028 219.487 134.026C219.718 135.985 220.294 137.54 221.216 138.693C222.176 139.807 223.636 140.575 225.595 140.997C227.554 141.382 230.281 141.593 233.777 141.631H247.72C250.025 141.631 251.984 141.535 253.597 141.343C255.249 141.151 256.613 140.844 257.688 140.421C258.764 139.96 259.609 139.365 260.223 138.635C260.838 137.905 261.299 136.983 261.606 135.869C261.913 134.717 262.105 133.353 262.182 131.778C262.259 130.204 262.298 128.36 262.298 126.247C262.298 125.594 262.605 125.076 263.219 124.691C263.834 124.269 264.468 124.058 265.121 124.058L265.178 124V124.058C265.947 124.058 266.6 124.327 267.137 124.864C267.675 125.402 267.963 126.055 268.002 126.823V129.647Z" fill="#203D76"/>
<path d="M149.927 164.333C149.158 164.333 148.486 164.122 147.91 163.699C147.372 163.238 147.103 162.508 147.103 161.509V137.771C147.103 137.003 147.372 136.35 147.91 135.812C148.486 135.236 149.158 134.947 149.927 134.947C150.695 134.947 151.348 135.236 151.886 135.812C152.462 136.35 152.75 137.003 152.75 137.771V158.686H181.271C183.921 158.686 186.168 158.494 188.012 158.11C189.856 157.687 191.354 156.938 192.506 155.863C193.659 154.749 194.485 153.232 194.984 151.311C195.522 149.39 195.81 146.894 195.848 143.821C195.81 140.786 195.522 138.347 194.984 136.503C194.485 134.659 193.659 133.238 192.506 132.239C191.354 131.202 189.856 130.53 188.012 130.223C186.168 129.877 183.921 129.704 181.271 129.704H149.927C149.158 129.704 148.486 129.435 147.91 128.898C147.372 128.321 147.103 127.649 147.103 126.881C147.103 126.113 147.372 125.46 147.91 124.922C148.486 124.346 149.158 124.058 149.927 124.058H184.325C187.244 124.096 189.779 124.327 191.93 124.749C194.081 125.172 195.868 126.074 197.289 127.457C198.71 128.802 199.766 130.78 200.458 133.392C201.188 135.965 201.553 139.461 201.553 143.878V143.936C201.553 148.661 201.13 152.387 200.285 155.114C199.478 157.841 198.23 159.896 196.54 161.279C194.888 162.623 192.795 163.469 190.259 163.814C187.724 164.16 184.728 164.333 181.271 164.333H149.927Z" fill="#203D76"/>
<defs>
<linearGradient id="paint0_linear_6568_27482" x1="362.426" y1="47.6346" x2="424.526" y2="47.6346" gradientUnits="userSpaceOnUse">
<stop offset="0.54" stop-color="#1C315E"/>
<stop offset="0.55" stop-color="#1C315E"/>
<stop offset="0.71" stop-color="#1D3B74"/>
<stop offset="0.86" stop-color="#1D4082"/>
<stop offset="1" stop-color="#1E4387"/>
</linearGradient>
<linearGradient id="paint1_linear_6568_27482" x1="399.404" y1="88.81" x2="424.512" y2="88.81" gradientUnits="userSpaceOnUse">
<stop offset="0.54" stop-color="#1C315E"/>
<stop offset="0.55" stop-color="#1C315E"/>
<stop offset="0.71" stop-color="#1D3B74"/>
<stop offset="0.86" stop-color="#1D4082"/>
<stop offset="1" stop-color="#1E4387"/>
</linearGradient>
<linearGradient id="paint2_linear_6568_27482" x1="440.317" y1="38.555" x2="450.64" y2="38.555" gradientUnits="userSpaceOnUse">
<stop offset="0.54" stop-color="#1C315E"/>
<stop offset="0.55" stop-color="#1C315E"/>
<stop offset="0.71" stop-color="#1D3B74"/>
<stop offset="0.86" stop-color="#1D4082"/>
<stop offset="1" stop-color="#1E4387"/>
</linearGradient>
<linearGradient id="paint3_linear_6568_27482" x1="429.491" y1="20.964" x2="382.775" y2="71.2816" gradientUnits="userSpaceOnUse">
<stop stop-color="#A77E2D"/>
<stop offset="0.08" stop-color="#AC8331"/>
<stop offset="0.18" stop-color="#BA913D"/>
<stop offset="0.29" stop-color="#D3A951"/>
<stop offset="0.39" stop-color="#F0C669"/>
<stop offset="0.5" stop-color="#D7AC56"/>
<stop offset="0.73" stop-color="#9A6B28"/>
<stop offset="0.74" stop-color="#996A28"/>
<stop offset="1" stop-color="#946C29"/>
</linearGradient>
<linearGradient id="paint4_linear_6568_27482" x1="385.084" y1="66.5105" x2="420.732" y2="15.9486" gradientUnits="userSpaceOnUse">
<stop stop-color="#A77E2D"/>
<stop offset="0.18" stop-color="#A9802F"/>
<stop offset="0.29" stop-color="#B18835"/>
<stop offset="0.38" stop-color="#C09641"/>
<stop offset="0.45" stop-color="#D4AA52"/>
<stop offset="0.52" stop-color="#EEC467"/>
<stop offset="0.53" stop-color="#F0C669"/>
<stop offset="0.56" stop-color="#DDB35B"/>
<stop offset="0.62" stop-color="#C29949"/>
<stop offset="0.69" stop-color="#AD853B"/>
<stop offset="0.77" stop-color="#9F7630"/>
<stop offset="0.86" stop-color="#966E2A"/>
<stop offset="1" stop-color="#946C29"/>
</linearGradient>
<linearGradient id="paint5_linear_6568_27482" x1="432.121" y1="68.0953" x2="465.853" y2="68.0953" gradientUnits="userSpaceOnUse">
<stop offset="0.07" stop-color="#1C315E"/>
<stop offset="0.57" stop-color="#1C315F"/>
<stop offset="0.75" stop-color="#1C3566"/>
<stop offset="0.88" stop-color="#1E3A72"/>
<stop offset="0.99" stop-color="#1F4283"/>
<stop offset="1" stop-color="#204486"/>
</linearGradient>
<linearGradient id="paint6_linear_6568_27482" x1="432.121" y1="61.9302" x2="465.853" y2="61.9302" gradientUnits="userSpaceOnUse">
<stop offset="0.54" stop-color="#1C315E"/>
<stop offset="0.55" stop-color="#1C315E"/>
<stop offset="0.71" stop-color="#1D3B74"/>
<stop offset="0.86" stop-color="#1D4082"/>
<stop offset="1" stop-color="#1E4387"/>
</linearGradient>
<linearGradient id="paint7_linear_6568_27482" x1="432.121" y1="68.5084" x2="465.853" y2="68.5084" gradientUnits="userSpaceOnUse">
<stop offset="0.07" stop-color="#1C315E"/>
<stop offset="0.57" stop-color="#1C315F"/>
<stop offset="0.75" stop-color="#1C3566"/>
<stop offset="0.88" stop-color="#1E3A72"/>
<stop offset="0.99" stop-color="#1F4283"/>
<stop offset="1" stop-color="#204486"/>
</linearGradient>
<linearGradient id="paint8_linear_6568_27482" x1="432.121" y1="68.4765" x2="465.853" y2="68.4765" gradientUnits="userSpaceOnUse">
<stop offset="0.07" stop-color="#1C315E"/>
<stop offset="0.57" stop-color="#1C315F"/>
<stop offset="0.75" stop-color="#1C3566"/>
<stop offset="0.88" stop-color="#1E3A72"/>
<stop offset="0.99" stop-color="#1F4283"/>
<stop offset="1" stop-color="#204486"/>
</linearGradient>
<linearGradient id="paint9_linear_6568_27482" x1="480.974" y1="38.279" x2="432.6" y2="86.6712" gradientUnits="userSpaceOnUse">
<stop stop-color="#A77E2D"/>
<stop offset="0.08" stop-color="#AC8331"/>
<stop offset="0.18" stop-color="#BA913D"/>
<stop offset="0.29" stop-color="#D3A951"/>
<stop offset="0.39" stop-color="#F0C669"/>
<stop offset="0.5" stop-color="#D7AC56"/>
<stop offset="0.73" stop-color="#9A6B28"/>
<stop offset="0.74" stop-color="#996A28"/>
<stop offset="1" stop-color="#946C29"/>
</linearGradient>
<linearGradient id="paint10_linear_6568_27482" x1="432.121" y1="68.0951" x2="465.853" y2="68.0951" gradientUnits="userSpaceOnUse">
<stop offset="0.07" stop-color="#1C315E"/>
<stop offset="0.57" stop-color="#1C315F"/>
<stop offset="0.75" stop-color="#1C3566"/>
<stop offset="0.88" stop-color="#1E3A72"/>
<stop offset="0.99" stop-color="#1F4283"/>
<stop offset="1" stop-color="#204486"/>
</linearGradient>
<linearGradient id="paint11_linear_6568_27482" x1="437.274" y1="84.7017" x2="472.922" y2="34.1398" gradientUnits="userSpaceOnUse">
<stop stop-color="#A77E2D"/>
<stop offset="0.18" stop-color="#A9802F"/>
<stop offset="0.29" stop-color="#B18835"/>
<stop offset="0.38" stop-color="#C09641"/>
<stop offset="0.45" stop-color="#D4AA52"/>
<stop offset="0.52" stop-color="#EEC467"/>
<stop offset="0.53" stop-color="#F0C669"/>
<stop offset="0.56" stop-color="#DDB35B"/>
<stop offset="0.62" stop-color="#C29949"/>
<stop offset="0.69" stop-color="#AD853B"/>
<stop offset="0.77" stop-color="#9F7630"/>
<stop offset="0.86" stop-color="#966E2A"/>
<stop offset="1" stop-color="#946C29"/>
</linearGradient>
</defs>
</svg>
