<svg width="32" height="36" viewBox="0 0 32 36" fill="none" xmlns="http://www.w3.org/2000/svg">
<path d="M0.483843 19.4914C0.966161 20.5621 1.72674 21.5018 2.55225 22.32C3.40095 23.1616 4.25892 24.0078 5.10298 24.8587C5.79863 25.56 6.48964 26.2566 7.18529 26.9579C7.42645 27.201 7.66297 27.4395 7.90413 27.6826L10.7795 24.826L3.70703 17.6961L15.5563 5.75065V0C15.3198 0.238442 15.0879 0.472208 14.8514 0.71065C14.2392 1.32779 13.627 1.94494 13.0102 2.56675C12.1569 3.42701 11.3036 4.28727 10.4502 5.14753C9.49486 6.11065 8.53949 7.07377 7.58413 8.03688C6.63804 8.99065 5.70587 9.95376 4.76442 10.9075C3.81833 11.866 2.80732 12.759 1.86123 13.7221C1.17022 14.4281 0.493118 15.1948 0.187031 16.1392C-0.142244 17.1491 -0.0123924 18.2665 0.386448 19.253C0.418912 19.3325 0.451376 19.4119 0.488478 19.4914H0.483843Z" fill="url(#paint0_linear_3863_23083)"/>
<path d="M9.26172 29.0571L15.5504 35.3922V29.6415L12.1371 26.2005L9.26172 29.0571Z" fill="url(#paint1_linear_3863_23083)"/>
<path d="M23.1328 7.56L23.04 7.6535V12.6421L25.6279 10.0753L23.1328 7.56Z" fill="url(#paint2_linear_3863_23083)"/>
<path d="M15.1471 0.416107L15.1888 0.448834C15.1657 0.514289 15.1378 0.579744 15.1146 0.645199L14.9987 0.935069L14.9384 1.08L14.9106 1.15481C14.9013 1.17819 14.892 1.20156 14.8828 1.22961L14.637 1.80468L14.3726 2.37507L14.0944 2.93611C13.7141 3.68416 13.2967 4.40883 12.8283 5.10546L12.652 5.36728C12.5917 5.45143 12.5315 5.54026 12.4712 5.62442L12.3784 5.75065C12.3784 5.75065 12.3506 5.79273 12.332 5.81611L12.2857 5.87689L12.0955 6.12935C12.0352 6.21351 11.9657 6.29299 11.9007 6.37715L11.8033 6.49871L11.7523 6.55948C11.7523 6.55948 11.7199 6.60156 11.7013 6.62026L11.4973 6.8587L11.4462 6.91948C11.4462 6.91948 11.4138 6.96156 11.3952 6.98026L11.2932 7.09715L11.1912 7.21403L11.1401 7.27481C11.1401 7.27481 11.1077 7.31221 11.0891 7.33091L10.8758 7.56L10.8201 7.61611L10.7923 7.64416L10.7645 7.67221L10.7413 7.69559L10.7181 7.71896L10.6532 7.78442L10.5419 7.89663L10.4862 7.95273C10.4862 7.95273 10.4538 7.98546 10.4352 7.99949C10.4352 7.99949 10.4352 7.99948 10.4306 8.00416L10.412 8.02286L10.2033 8.2239C10.1709 8.25663 10.1384 8.28468 10.1059 8.31273C10.1013 8.31741 10.0967 8.32208 10.0874 8.32676L10.0642 8.35013L10.0364 8.37819L9.97609 8.43429L9.86015 8.54182C9.82305 8.57455 9.78131 8.61195 9.73957 8.64468L9.61899 8.74754C9.57725 8.78026 9.54015 8.81767 9.49841 8.85039C8.85841 9.38806 8.17667 9.86026 7.48566 10.3278C6.79928 10.7907 6.10363 11.2442 5.44044 11.7444C5.11117 11.9922 4.78652 12.254 4.48044 12.5346C4.17435 12.8151 3.88218 13.1096 3.60856 13.4275C3.33957 13.7455 3.09377 14.0821 2.8758 14.4374C2.65783 14.7927 2.47232 15.1668 2.31464 15.5501C2.15696 15.9335 2.0271 16.3309 1.92971 16.733C1.83232 17.1351 1.76276 17.5465 1.72565 17.9579C1.68391 18.3694 1.67465 18.7808 1.68856 19.1922C1.70247 19.6036 1.73957 20.0151 1.79522 20.4171C1.85551 20.852 1.93899 21.2774 2.04102 21.7029C2.04102 21.7169 2.0503 21.7356 2.0503 21.7496C2.05493 21.7683 2.05957 21.787 2.06421 21.8104L2.03174 21.787C1.97609 21.5626 1.92507 21.3382 1.8787 21.1091C1.8787 21.0997 1.8787 21.0951 1.87406 21.0857C1.83232 20.866 1.79058 20.6509 1.75812 20.4265C1.63754 19.613 1.60044 18.7808 1.67928 17.9533C1.71638 17.5418 1.78594 17.1257 1.8787 16.719C1.97609 16.3122 2.10131 15.9148 2.25899 15.5268C2.41667 15.1387 2.60682 14.76 2.82479 14.4047C3.04276 14.0447 3.28856 13.7034 3.56218 13.3855C3.83116 13.0675 4.12798 12.7683 4.43406 12.4831C4.74479 12.2026 5.06943 11.9408 5.3987 11.6883C6.06189 11.1881 6.75754 10.7299 7.44392 10.267C8.13029 9.80416 8.81204 9.32728 9.4474 8.79429C9.48914 8.76156 9.52624 8.72884 9.56797 8.69143L9.68392 8.58858C9.72102 8.55585 9.76276 8.52312 9.79986 8.48572L9.9158 8.38286L10.0317 8.28C10.0317 8.28 10.0457 8.26598 10.0503 8.2613C10.0596 8.25195 10.0688 8.2426 10.0781 8.23793C10.0781 8.23793 10.0874 8.22858 10.092 8.2239C10.092 8.2239 10.1013 8.21455 10.1059 8.21455C10.1199 8.20052 10.1338 8.19117 10.1477 8.17715L10.3749 7.96208C10.3749 7.96208 10.412 7.92468 10.4306 7.90598L10.4538 7.8826L10.477 7.85923L10.4862 7.84987L10.5975 7.73767L10.7088 7.62546L10.7367 7.59741L10.7552 7.57871L10.7645 7.56935L10.7784 7.55533L10.8201 7.51325L11.0335 7.28416C11.0335 7.28416 11.0706 7.24676 11.0845 7.22806L11.1355 7.17195L11.2375 7.05507L11.3396 6.93819C11.3396 6.93819 11.372 6.90078 11.3906 6.87741L11.4416 6.81663L11.641 6.57819C11.641 6.57819 11.6735 6.53611 11.692 6.51741L11.743 6.45663L11.8404 6.33507C11.9054 6.25559 11.9703 6.17143 12.0352 6.08728L12.2254 5.83949L12.2717 5.77871C12.2717 5.77871 12.3042 5.73663 12.3181 5.71325L12.4109 5.58702C12.4712 5.50286 12.5315 5.41871 12.5917 5.32987L12.768 5.06806C13.2317 4.37611 13.6538 3.65143 14.0341 2.90806C14.4144 2.16468 14.7529 1.4026 15.059 0.626497C15.0868 0.556367 15.1146 0.486237 15.1425 0.416107H15.1471Z" fill="url(#paint3_linear_3863_23083)"/>
<path d="M15.1477 0.416107L15.1384 0.434809C14.8462 1.17819 14.3778 1.7813 14.0161 2.49195C13.6358 3.23533 13.1442 3.90858 12.6804 4.60052L12.5042 4.86234C12.4439 4.9465 12.3836 5.03065 12.3233 5.11948L12.2306 5.24572C12.2306 5.24572 12.2027 5.2878 12.1842 5.31117L12.1378 5.37195L11.9477 5.62442C11.8874 5.70857 11.8178 5.78806 11.7529 5.87221L11.6555 5.99377L11.6045 6.05455C11.6045 6.05455 11.572 6.09663 11.5534 6.11533L11.3494 6.35377L11.2984 6.41455C11.2984 6.41455 11.2659 6.45663 11.2474 6.47533L11.1453 6.59221L11.0433 6.70909L10.9923 6.76987C10.9877 6.77455 10.9784 6.7839 10.9737 6.79325C10.9645 6.80728 10.9506 6.81663 10.9413 6.83065L10.7511 7.03637L10.7279 7.05974L10.6723 7.11585L10.6445 7.1439L10.6166 7.17195L10.5053 7.28416L10.4404 7.34961L10.4172 7.37299L10.3987 7.39169L10.343 7.4478C10.343 7.4478 10.3059 7.4852 10.2874 7.5039L10.1111 7.67221L10.0694 7.70961L10.0601 7.71896C10.023 7.75637 9.98591 7.78909 9.94417 7.8265L9.82823 7.92935L9.71229 8.03221C9.67519 8.06494 9.63345 8.10234 9.59635 8.13507L9.47577 8.23793C9.43403 8.27065 9.39693 8.30806 9.35519 8.34078C8.71519 8.87377 8.03345 9.35065 7.34707 9.81351C6.6607 10.2764 5.96504 10.7345 5.30186 11.2348C4.96794 11.4873 4.64794 11.7491 4.33722 12.0249C4.02649 12.3055 3.73432 12.6047 3.46533 12.9226C3.19635 13.2405 2.94592 13.5818 2.73258 13.9371C2.51461 14.2925 2.3291 14.6665 2.17142 15.0545C2.01374 15.4426 1.88388 15.84 1.78649 16.2421C1.6891 16.6488 1.61953 17.0556 1.58243 17.4717C1.54533 17.8831 1.53142 18.2992 1.54533 18.7107C1.55924 19.1221 1.59635 19.5335 1.65664 19.9403C1.71229 20.3283 1.78649 20.7117 1.87461 21.0857C1.92562 21.3008 1.98128 21.5158 2.04157 21.7262C2.04157 21.7403 2.05084 21.7543 2.05084 21.7636C2.05084 21.7777 2.06012 21.7917 2.06476 21.8057C2.06476 21.8057 2.05548 21.7777 2.05548 21.7636C2.05548 21.7496 2.0462 21.7356 2.0462 21.7262C1.98591 21.5205 1.9349 21.3148 1.88389 21.1091C1.79113 20.721 1.71693 20.333 1.66127 19.9356C1.60098 19.5288 1.56389 19.1174 1.54997 18.706C1.53606 18.2945 1.54997 17.8784 1.58708 17.467C1.62418 17.0556 1.69374 16.6442 1.79113 16.2374C1.88853 15.8307 2.01837 15.4332 2.17606 15.0499C2.33374 14.6618 2.51925 14.2878 2.73722 13.9325C2.95519 13.5771 3.20099 13.2358 3.46997 12.9179C3.73896 12.6 4.03577 12.3008 4.34186 12.0203C4.65258 11.7397 4.97258 11.4779 5.30649 11.2255C5.96968 10.7252 6.66533 10.2717 7.35171 9.80416C8.03809 9.3413 8.71983 8.86442 9.35983 8.33143C9.40157 8.2987 9.43866 8.26598 9.4804 8.22857L9.59635 8.12572C9.63345 8.09299 9.67519 8.06026 9.71229 8.02286L9.82823 7.92L9.94417 7.81715C9.98127 7.78442 10.023 7.74702 10.0601 7.70961L10.074 7.70026L10.1158 7.66286L10.2874 7.49922C10.2874 7.49922 10.3245 7.46182 10.343 7.44312L10.3987 7.38702L10.4219 7.36364L10.445 7.34026L10.5053 7.27948L10.6166 7.16728L10.6445 7.13922L10.6723 7.11117L10.7279 7.05507H10.7326L10.7558 7.02702L10.9413 6.83065C10.9413 6.83065 10.9645 6.8026 10.9784 6.78858C10.983 6.7839 10.9877 6.77922 10.9923 6.76987L11.0387 6.71377L11.1407 6.59689L11.2427 6.48C11.2427 6.48 11.2752 6.4426 11.2937 6.41922L11.3448 6.35844L11.5488 6.12C11.5488 6.12 11.5813 6.07793 11.5998 6.05922L11.6508 5.99844L11.7482 5.87689C11.8132 5.79273 11.8781 5.71325 11.943 5.62909L12.1332 5.37663L12.1795 5.31585C12.1795 5.31585 12.212 5.27377 12.2259 5.25039L12.3187 5.12416C12.379 5.04 12.4392 4.95585 12.4995 4.86702L12.6758 4.6052C13.1395 3.90857 13.6311 3.25871 14.0114 2.51533C14.3732 1.80468 14.8462 1.16416 15.143 0.420784L15.1477 0.416107Z" fill="url(#paint4_linear_3863_23083)"/>
<path d="M31.4168 16.8733L31.3054 16.9808C31.2683 17.0182 31.2312 17.0509 31.1941 17.0883C30.5912 17.6494 29.9559 18.159 29.3159 18.6592C28.6759 19.1595 28.0312 19.6504 27.4098 20.1834C27.0991 20.4499 26.793 20.7257 26.5008 21.0156C26.2086 21.3055 25.9257 21.6094 25.6567 21.932C25.3924 22.2546 25.142 22.5912 24.9194 22.9465C24.6967 23.2971 24.4927 23.6618 24.3211 24.0359C24.1449 24.4099 23.9918 24.7886 23.8666 25.172C23.7414 25.5553 23.6393 25.9387 23.5651 26.3268C23.4909 26.7101 23.4353 27.0935 23.4075 27.4722C23.4028 27.533 23.3982 27.5984 23.3936 27.6592C23.4214 27.6312 23.4492 27.6031 23.477 27.5751C23.5095 27.3039 23.5466 27.0327 23.6023 26.7616C23.6765 26.3782 23.7785 25.9901 23.9037 25.6068C24.0289 25.2234 24.182 24.84 24.3582 24.466C24.5344 24.092 24.7338 23.7226 24.9611 23.372C25.1837 23.0166 25.4341 22.68 25.6985 22.3527C25.9628 22.0301 26.2504 21.7216 26.5425 21.4317C26.8394 21.1418 27.1454 20.8613 27.4562 20.5948C28.0776 20.0618 28.7222 19.5709 29.3622 19.066C30.0022 18.5657 30.6376 18.0561 31.2359 17.4951C31.273 17.4623 31.3101 17.4249 31.3472 17.3875L31.4585 17.28C31.4585 17.28 31.4724 17.266 31.477 17.2613C31.4631 17.1304 31.4446 16.9995 31.4214 16.8686L31.4168 16.8733Z" fill="url(#paint5_linear_3863_23083)"/>
<path d="M23.5595 26.3267C23.6337 25.9434 23.7357 25.5553 23.8609 25.1719C23.9861 24.7886 24.1392 24.4099 24.3154 24.0358C24.4916 23.6618 24.691 23.2971 24.9137 22.9465C25.1363 22.5958 25.3867 22.2545 25.651 21.9319C25.9154 21.6093 26.1983 21.3055 26.4951 21.0156C26.7873 20.7257 27.0934 20.4499 27.4041 20.1834C28.0255 19.6504 28.6702 19.1595 29.3102 18.6592C29.9502 18.159 30.5855 17.6493 31.1884 17.0883C31.2255 17.0556 31.2626 17.0182 31.2997 16.9808L31.411 16.8732C31.2673 16.1205 30.9102 15.4052 30.3305 14.8208L26.9867 11.4452L24.1763 14.2364L27.6406 17.7288L23.04 22.3667V28.0005C23.156 27.8836 23.2673 27.7714 23.3832 27.6545C23.3832 27.5938 23.3925 27.5283 23.3971 27.4675C23.4296 27.0888 23.4806 26.7055 23.5548 26.3221L23.5595 26.3267Z" fill="url(#paint6_linear_3863_23083)"/>
<path d="M31.2584 17.5465C30.6508 18.1076 30.0155 18.6172 29.3755 19.1221C28.7355 19.6224 28.0908 20.1133 27.4694 20.6463C27.1586 20.9127 26.8526 21.1839 26.5604 21.4738C26.2682 21.7637 25.9853 22.0676 25.721 22.3901C25.4566 22.7127 25.2108 23.0494 24.9882 23.4C24.7656 23.7507 24.5662 24.1153 24.3899 24.4847C24.2137 24.854 24.0607 25.2374 23.9355 25.6161C23.8102 25.9995 23.7082 26.3829 23.634 26.7662C23.583 27.0234 23.5413 27.2852 23.5088 27.5424C25.7859 25.2468 28.063 22.9512 30.3355 20.6556C31.1331 19.8514 31.5134 18.7948 31.4856 17.7429C31.4856 17.612 31.4856 17.4811 31.4763 17.3455L31.3697 17.4483C31.3326 17.4857 31.2955 17.5185 31.2584 17.5559V17.5465Z" fill="url(#paint7_linear_3863_23083)"/>
<path d="M31.4531 17.2894L31.3418 17.3969C31.3047 17.4343 31.2676 17.467 31.2305 17.5044C30.6276 18.0655 29.9923 18.5751 29.3569 19.0753C28.7169 19.5756 28.0723 20.0712 27.4508 20.6042C27.1401 20.8707 26.834 21.1465 26.5372 21.441C26.2404 21.7309 25.9575 22.0395 25.6931 22.3621C25.4288 22.6847 25.1783 23.026 24.9557 23.3813C24.7331 23.7366 24.5291 24.1013 24.3528 24.4753C24.1766 24.8494 24.0236 25.2327 23.8983 25.6161C23.7731 25.9995 23.6711 26.3875 23.5969 26.7709C23.5412 27.0421 23.5041 27.3132 23.4717 27.5844L23.5134 27.5423C23.5459 27.2852 23.583 27.0281 23.6386 26.7662C23.7175 26.3829 23.8149 25.9995 23.9401 25.6161C24.0653 25.2327 24.2183 24.854 24.3946 24.4847C24.5708 24.1153 24.7702 23.7507 24.9928 23.4C25.2154 23.0494 25.4612 22.7127 25.7256 22.3901C25.9899 22.0675 26.2728 21.7636 26.565 21.4738C26.8572 21.1839 27.1633 20.9081 27.474 20.6462C28.0955 20.1179 28.7401 19.6223 29.3801 19.1221C30.0201 18.6218 30.6554 18.1122 31.263 17.5465C31.3001 17.5138 31.3372 17.4764 31.3743 17.439L31.481 17.3361C31.481 17.3361 31.4809 17.2894 31.4763 17.266C31.4717 17.2707 31.4624 17.28 31.4578 17.2847L31.4531 17.2894Z" fill="url(#paint8_linear_3863_23083)"/>
<path d="M31.4531 17.2894L31.3418 17.3969C31.3047 17.4343 31.2676 17.467 31.2305 17.5044C30.6276 18.0655 29.9923 18.5751 29.3569 19.0753C28.7169 19.5756 28.0723 20.0712 27.4508 20.6042C27.1401 20.8707 26.834 21.1465 26.5372 21.441C26.2404 21.7309 25.9575 22.0395 25.6931 22.3621C25.4288 22.6847 25.1783 23.026 24.9557 23.3813C24.7331 23.7366 24.5291 24.1013 24.3528 24.4753C24.1766 24.8494 24.0236 25.2327 23.8983 25.6161C23.7731 25.9995 23.6711 26.3875 23.5969 26.7709C23.5412 27.0421 23.5041 27.3132 23.4717 27.5844L23.5134 27.5423C23.5459 27.2852 23.583 27.0281 23.6386 26.7662C23.7175 26.3829 23.8149 25.9995 23.9401 25.6161C24.0653 25.2327 24.2183 24.854 24.3946 24.4847C24.5708 24.1153 24.7702 23.7507 24.9928 23.4C25.2154 23.0494 25.4612 22.7127 25.7256 22.3901C25.9899 22.0675 26.2728 21.7636 26.565 21.4738C26.8572 21.1839 27.1633 20.9081 27.474 20.6462C28.0955 20.1179 28.7401 19.6223 29.3801 19.1221C30.0201 18.6218 30.6554 18.1122 31.263 17.5465C31.3001 17.5138 31.3372 17.4764 31.3743 17.439L31.481 17.3361C31.481 17.3361 31.4809 17.2894 31.4763 17.266C31.4717 17.2707 31.4624 17.28 31.4578 17.2847L31.4531 17.2894Z" fill="url(#paint9_linear_3863_23083)"/>
<path d="M23.3977 27.4722C23.4302 27.0935 23.4812 26.7101 23.5554 26.3268C23.6296 25.9434 23.7316 25.5553 23.8568 25.1719C23.982 24.7886 24.1351 24.4099 24.3113 24.0358C24.4876 23.6618 24.687 23.2971 24.9096 22.9465C25.1322 22.5958 25.3826 22.2545 25.647 21.9319C25.9113 21.6093 26.1942 21.3055 26.491 21.0156C26.7832 20.7257 27.0893 20.4499 27.4 20.1834C28.0215 19.6504 28.6661 19.1595 29.3061 18.6592C29.9461 18.159 30.5815 17.6493 31.1844 17.0883C31.2215 17.0556 31.2586 17.0182 31.2957 16.9808C31.2586 17.0182 31.2215 17.0509 31.1844 17.0883C30.5815 17.6493 29.9461 18.159 29.3061 18.6592C28.6661 19.1595 28.0215 19.6504 27.4 20.1834C27.0893 20.4499 26.7832 20.7257 26.491 21.0156C26.1989 21.3055 25.916 21.614 25.647 21.9319C25.3826 22.2545 25.1322 22.5912 24.9096 22.9465C24.687 23.2971 24.4829 23.6618 24.3113 24.0358C24.1351 24.4099 23.982 24.7886 23.8568 25.1719C23.7316 25.5553 23.6296 25.9434 23.5554 26.3268C23.4812 26.7101 23.4255 27.0935 23.3977 27.4722C23.3931 27.533 23.3884 27.5984 23.3838 27.6592C23.3838 27.5938 23.3931 27.533 23.3977 27.4722Z" fill="url(#paint10_linear_3863_23083)"/>
<path d="M23.3977 27.4722C23.4302 27.0935 23.4812 26.7101 23.5554 26.3268C23.6296 25.9434 23.7316 25.5553 23.8568 25.1719C23.982 24.7886 24.1351 24.4099 24.3113 24.0358C24.4876 23.6618 24.687 23.2971 24.9096 22.9465C25.1322 22.5958 25.3826 22.2545 25.647 21.9319C25.9113 21.6093 26.1942 21.3055 26.491 21.0156C26.7832 20.7257 27.0893 20.4499 27.4 20.1834C28.0215 19.6504 28.6661 19.1595 29.3061 18.6592C29.9461 18.159 30.5815 17.6493 31.1844 17.0883C31.2215 17.0556 31.2586 17.0182 31.2957 16.9808C31.2586 17.0182 31.2215 17.0509 31.1844 17.0883C30.5815 17.6493 29.9461 18.159 29.3061 18.6592C28.6661 19.1595 28.0215 19.6504 27.4 20.1834C27.0893 20.4499 26.7832 20.7257 26.491 21.0156C26.1989 21.3055 25.916 21.614 25.647 21.9319C25.3826 22.2545 25.1322 22.5912 24.9096 22.9465C24.687 23.2971 24.4829 23.6618 24.3113 24.0358C24.1351 24.4099 23.982 24.7886 23.8568 25.1719C23.7316 25.5553 23.6296 25.9434 23.5554 26.3268C23.4812 26.7101 23.4255 27.0935 23.3977 27.4722C23.3931 27.533 23.3884 27.5984 23.3838 27.6592C23.3838 27.5938 23.3931 27.533 23.3977 27.4722Z" fill="url(#paint11_linear_3863_23083)"/>
<defs>
<linearGradient id="paint0_linear_3863_23083" x1="-8.38341" y1="13.839" x2="15.5609" y2="13.839" gradientUnits="userSpaceOnUse">
<stop offset="0.54" stop-color="#1C315E"/>
<stop offset="0.55" stop-color="#1C315E"/>
<stop offset="0.71" stop-color="#1D3B74"/>
<stop offset="0.86" stop-color="#1D4082"/>
<stop offset="1" stop-color="#1E4387"/>
</linearGradient>
<linearGradient id="paint1_linear_3863_23083" x1="5.87157" y1="30.7963" x2="15.5551" y2="30.7963" gradientUnits="userSpaceOnUse">
<stop offset="0.54" stop-color="#1C315E"/>
<stop offset="0.55" stop-color="#1C315E"/>
<stop offset="0.71" stop-color="#1D3B74"/>
<stop offset="0.86" stop-color="#1D4082"/>
<stop offset="1" stop-color="#1E4387"/>
</linearGradient>
<linearGradient id="paint2_linear_3863_23083" x1="21.6487" y1="10.1034" x2="25.6279" y2="10.1034" gradientUnits="userSpaceOnUse">
<stop offset="0.54" stop-color="#1C315E"/>
<stop offset="0.55" stop-color="#1C315E"/>
<stop offset="0.71" stop-color="#1D3B74"/>
<stop offset="0.86" stop-color="#1D4082"/>
<stop offset="1" stop-color="#1E4387"/>
</linearGradient>
<linearGradient id="paint3_linear_3863_23083" x1="16.9413" y1="5.39069" x2="-2.35225" y2="24.8417" gradientUnits="userSpaceOnUse">
<stop stop-color="#A77E2D"/>
<stop offset="0.08" stop-color="#AC8331"/>
<stop offset="0.18" stop-color="#BA913D"/>
<stop offset="0.29" stop-color="#D3A951"/>
<stop offset="0.39" stop-color="#F0C669"/>
<stop offset="0.5" stop-color="#D7AC56"/>
<stop offset="0.73" stop-color="#9A6B28"/>
<stop offset="0.74" stop-color="#996A28"/>
<stop offset="1" stop-color="#946C29"/>
</linearGradient>
<linearGradient id="paint4_linear_3863_23083" x1="-0.18" y1="24.1465" x2="14.7969" y2="4.25866" gradientUnits="userSpaceOnUse">
<stop stop-color="#A77E2D"/>
<stop offset="0.18" stop-color="#A9802F"/>
<stop offset="0.29" stop-color="#B18835"/>
<stop offset="0.38" stop-color="#C09641"/>
<stop offset="0.45" stop-color="#D4AA52"/>
<stop offset="0.52" stop-color="#EEC467"/>
<stop offset="0.53" stop-color="#F0C669"/>
<stop offset="0.56" stop-color="#DDB35B"/>
<stop offset="0.62" stop-color="#C29949"/>
<stop offset="0.69" stop-color="#AD853B"/>
<stop offset="0.77" stop-color="#9F7630"/>
<stop offset="0.86" stop-color="#966E2A"/>
<stop offset="1" stop-color="#946C29"/>
</linearGradient>
<linearGradient id="paint5_linear_3863_23083" x1="18.4915" y1="22.2686" x2="31.4956" y2="22.2686" gradientUnits="userSpaceOnUse">
<stop offset="0.07" stop-color="#1C315E"/>
<stop offset="0.57" stop-color="#1C315F"/>
<stop offset="0.75" stop-color="#1C3566"/>
<stop offset="0.88" stop-color="#1E3A72"/>
<stop offset="0.99" stop-color="#1F4283"/>
<stop offset="1" stop-color="#204486"/>
</linearGradient>
<linearGradient id="paint6_linear_3863_23083" x1="18.4905" y1="19.7252" x2="31.4945" y2="19.7252" gradientUnits="userSpaceOnUse">
<stop offset="0.54" stop-color="#1C315E"/>
<stop offset="0.55" stop-color="#1C315E"/>
<stop offset="0.71" stop-color="#1D3B74"/>
<stop offset="0.86" stop-color="#1D4082"/>
<stop offset="1" stop-color="#1E4387"/>
</linearGradient>
<linearGradient id="paint7_linear_3863_23083" x1="18.4908" y1="22.4369" x2="31.4949" y2="22.4369" gradientUnits="userSpaceOnUse">
<stop offset="0.07" stop-color="#1C315E"/>
<stop offset="0.57" stop-color="#1C315F"/>
<stop offset="0.75" stop-color="#1C3566"/>
<stop offset="0.88" stop-color="#1E3A72"/>
<stop offset="0.99" stop-color="#1F4283"/>
<stop offset="1" stop-color="#204486"/>
</linearGradient>
<linearGradient id="paint8_linear_3863_23083" x1="18.4908" y1="22.4229" x2="31.4949" y2="22.4229" gradientUnits="userSpaceOnUse">
<stop offset="0.07" stop-color="#1C315E"/>
<stop offset="0.57" stop-color="#1C315F"/>
<stop offset="0.75" stop-color="#1C3566"/>
<stop offset="0.88" stop-color="#1E3A72"/>
<stop offset="0.99" stop-color="#1F4283"/>
<stop offset="1" stop-color="#204486"/>
</linearGradient>
<linearGradient id="paint9_linear_3863_23083" x1="34.8687" y1="11.0723" x2="14.9832" y2="29.6923" gradientUnits="userSpaceOnUse">
<stop stop-color="#A77E2D"/>
<stop offset="0.08" stop-color="#AC8331"/>
<stop offset="0.18" stop-color="#BA913D"/>
<stop offset="0.29" stop-color="#D3A951"/>
<stop offset="0.39" stop-color="#F0C669"/>
<stop offset="0.5" stop-color="#D7AC56"/>
<stop offset="0.73" stop-color="#9A6B28"/>
<stop offset="0.74" stop-color="#996A28"/>
<stop offset="1" stop-color="#946C29"/>
</linearGradient>
<linearGradient id="paint10_linear_3863_23083" x1="18.491" y1="22.2639" x2="31.4951" y2="22.2639" gradientUnits="userSpaceOnUse">
<stop offset="0.07" stop-color="#1C315E"/>
<stop offset="0.57" stop-color="#1C315F"/>
<stop offset="0.75" stop-color="#1C3566"/>
<stop offset="0.88" stop-color="#1E3A72"/>
<stop offset="0.99" stop-color="#1F4283"/>
<stop offset="1" stop-color="#204486"/>
</linearGradient>
<linearGradient id="paint11_linear_3863_23083" x1="18.0171" y1="30.1925" x2="33.0005" y2="10.2961" gradientUnits="userSpaceOnUse">
<stop stop-color="#A77E2D"/>
<stop offset="0.18" stop-color="#A9802F"/>
<stop offset="0.29" stop-color="#B18835"/>
<stop offset="0.38" stop-color="#C09641"/>
<stop offset="0.45" stop-color="#D4AA52"/>
<stop offset="0.52" stop-color="#EEC467"/>
<stop offset="0.53" stop-color="#F0C669"/>
<stop offset="0.56" stop-color="#DDB35B"/>
<stop offset="0.62" stop-color="#C29949"/>
<stop offset="0.69" stop-color="#AD853B"/>
<stop offset="0.77" stop-color="#9F7630"/>
<stop offset="0.86" stop-color="#966E2A"/>
<stop offset="1" stop-color="#946C29"/>
</linearGradient>
</defs>
</svg>
